<svg width="16" height="12" viewBox="0 0 16 12" fill="none" xmlns="http://www.w3.org/2000/svg">
<path d="M13.0008 1.10036C12.0205 0.643986 11.3637 0.386731 10.3008 0.200362C10.2911 0.198529 10.3097 0.196097 10.3008 0.200362C10.2919 0.204627 10.3056 0.191615 10.3008 0.200362C10.1599 0.459803 9.51528 0.827848 9.40082 1.10036C8.23892 0.923915 7.83887 0.923915 6.70082 1.10036C6.59754 0.848973 5.93435 0.440089 5.80082 0.200362C5.79588 0.19179 5.80968 0.204602 5.80082 0.200362C5.79197 0.196122 5.81049 0.198786 5.80082 0.200362C4.73793 0.386359 4.08089 0.643629 3.10082 1.10036C3.09243 1.104 3.1056 1.09248 3.10082 1.10036C1.14054 4.06995 0.137392 7.23962 0.400822 10.1004C0.397419 10.0942 0.40156 10.1074 0.400822 10.1004C0.395297 10.096 0.404225 10.1066 0.400822 10.1004C1.69412 11.0636 2.7712 11.5127 4.00082 11.9004C3.99135 11.9035 4.01039 11.9032 4.00082 11.9004C3.99481 11.9084 4.0103 11.8972 4.00082 11.9004C4.29238 11.4979 4.67832 11.4459 4.90082 11.0004C4.90052 11.0072 4.90385 10.9943 4.90082 11.0004C4.90113 10.9935 4.90329 11.0067 4.90082 11.0004C4.89835 10.994 4.90564 10.1051 4.90082 10.1004C4.89601 10.0956 4.90714 10.1027 4.90082 10.1004C4.49339 9.94221 4.37855 10.3217 4.00082 10.1004C3.99396 10.0963 4.00497 10.1073 4.00082 10.1004C3.99667 10.0935 4.00129 10.1084 4.00082 10.1004C3.99749 10.1077 4.00036 10.0923 4.00082 10.1004C3.99448 10.1052 4.00416 10.093 4.00082 10.1004C3.92412 10.1642 4.08027 10.0401 4.00082 10.1004C3.99217 10.1015 4.00758 10.0948 4.00082 10.1004C3.99287 10.0967 4.00948 10.0992 4.00082 10.1004C6.47519 11.2459 9.65563 11.2459 12.1008 10.1004C12.092 10.0993 12.1088 10.0965 12.1008 10.1004C12.0939 10.0947 12.1096 10.1014 12.1008 10.1004C12.021 10.0401 12.1766 10.1636 12.1008 10.1004C12.0975 10.093 12.1072 10.1052 12.1008 10.1004C12.1012 10.0923 12.1042 10.1077 12.1008 10.1004C12.1004 10.1084 12.1049 10.0934 12.1008 10.1004C12.0967 10.1073 12.1077 10.0962 12.1008 10.1004C11.7241 10.3235 11.6092 9.94455 11.2008 10.1004C11.1945 10.1028 11.2056 10.0955 11.2008 10.1004C11.196 10.1052 11.2033 10.9939 11.2008 11.0004C11.1984 11.0068 11.2005 10.9935 11.2008 11.0004C11.1977 10.9942 11.2012 11.0072 11.2008 11.0004C11.427 11.4435 11.8132 11.4955 12.1008 11.9004C12.0913 11.8971 12.1067 11.9086 12.1008 11.9004C12.0912 11.9034 12.1103 11.9036 12.1008 11.9004C13.3362 11.5129 14.4075 11.0634 15.7008 10.1004C15.6974 10.1065 15.7064 10.0962 15.7008 10.1004C15.7002 10.1073 15.7042 10.0943 15.7008 10.1004C16.016 6.79278 14.7081 3.64751 13.0008 1.10036C13.0094 1.10381 12.9966 1.0921 13.0008 1.10036ZM5.80082 8.30036C5.05611 8.30036 4.00082 7.35236 4.00082 6.50036C4.00082 5.64858 5.04418 4.70036 5.80082 4.70036C6.56385 4.70036 6.71275 5.65462 6.70082 6.50036C6.70082 7.35236 6.55768 8.30036 5.80082 8.30036ZM10.3008 8.30036C9.55589 8.30036 9.40082 7.35236 9.40082 6.50036C9.40082 5.64858 9.54397 4.70036 10.3008 4.70036C11.0636 4.70036 12.113 5.65462 12.1008 6.50036C12.1008 7.35236 11.0636 8.30036 10.3008 8.30036Z" fill="white" fill-opacity="0.64"/>
</svg>
