<svg width="17" height="16" viewBox="0 0 17 16" fill="none" xmlns="http://www.w3.org/2000/svg">
<path d="M11.0002 8.10137L8.00025 11.1014C7.88273 11.2129 7.16282 11.1007 7.00025 11.1014C6.92142 11.1016 7.07294 11.1317 7.00025 11.1014C6.88739 11.056 7.06841 11.2016 7.00025 11.1014C6.93209 11.0012 6.0005 11.2223 6.00025 11.1014V8.10137H2.00025C1.83787 8.10137 1.11507 8.21541 1.00025 8.10137C0.885431 7.98733 1.00025 8.26265 1.00025 8.10137C1.00025 7.94009 0.885431 7.21541 1.00025 7.10137C1.11507 6.98733 1.83787 7.10137 2.00025 7.10137H6.00025V4.10137C6.0005 3.98045 6.93209 4.20157 7.00025 4.10137C6.88739 4.14672 7.06841 4.00118 7.00025 4.10137C6.88221 4.07846 7.11203 4.05727 7.00025 4.10137C7.11829 4.12428 7.9134 4.01872 8.00025 4.10137L11.0002 7.10137C11.1152 7.21666 11.0002 7.9391 11.0002 8.10137C11.1152 7.98608 11.0002 8.26364 11.0002 8.10137ZM15.0002 0.10137H10.0002C9.83787 0.10137 10.1151 -0.0126713 10.0002 0.10137C9.88543 0.215412 10.0002 0.940091 10.0002 1.10137C9.88543 0.987329 10.0002 1.26265 10.0002 1.10137C9.83787 1.10137 10.1151 1.21541 10.0002 1.10137H15.0002V14.1014H10.0002C9.83787 14.1014 10.1151 13.9873 10.0002 14.1014C9.88543 14.2154 10.0002 13.9401 10.0002 14.1014C10.0002 14.2627 9.88543 14.9873 10.0002 15.1014C9.83787 15.1014 10.1151 15.2154 10.0002 15.1014H15.0002C15.325 15.1014 15.7706 15.3295 16.0002 15.1014C16.2299 14.8733 16.0002 14.4239 16.0002 14.1014V1.10137C16.0002 0.778812 16.2299 0.329454 16.0002 0.10137C15.7706 -0.126713 15.325 0.10137 15.0002 0.10137Z" fill="#BCBBBC"/>
</svg>
