<svg width="15" height="13" viewBox="0 0 15 13" fill="none" xmlns="http://www.w3.org/2000/svg">
<path d="M1.31956 5.59974C1.31956 5.59974 8.14948 2.96119 10.3196 1.99974C11.1515 1.61519 13.9196 0.199744 13.9196 0.199744C13.9196 0.199744 14.9281 -0.207805 14.8196 1.09974C14.7834 1.63818 14.2089 3.56143 13.9196 5.59974C13.4855 8.48409 13.0196 11.8997 13.0196 11.8997C13.0196 11.8997 12.7344 12.6459 12.1196 12.7997C11.5047 12.9536 10.5004 12.0536 10.3196 11.8997C10.1748 11.7844 7.65994 10.0458 6.71956 9.19975C6.46637 8.96901 6.14086 8.83818 6.71956 8.29974C8.02167 7.0306 10.2792 4.79965 11.2196 3.79974C11.6536 3.33822 12.128 2.4922 10.3196 3.79974C7.75157 5.68418 4.91956 7.39974 4.91956 7.39974C4.91956 7.39974 4.2046 7.74585 3.11956 7.39974C2.03442 7.05364 0.419562 6.49974 0.419562 6.49974C0.419562 6.49974 -0.163338 6.21509 1.31956 5.59974Z" fill="white" fill-opacity="0.64"/>
</svg>
