<svg width="13" height="13" viewBox="0 0 13 13" fill="none" xmlns="http://www.w3.org/2000/svg">
<path d="M12.8008 11.7342L9.85372 8.78714C10.5632 7.84259 10.9463 6.69289 10.945 5.51154C10.945 2.49404 8.48999 0.0390625 5.47248 0.0390625C2.45497 0.0390625 0 2.49404 0 5.51154C0 8.52905 2.45497 10.984 5.47248 10.984C6.65382 10.9853 7.80353 10.6023 8.74807 9.89278L11.6951 12.8398C11.8443 12.9732 12.0389 13.0444 12.2389 13.0388C12.4389 13.0332 12.6292 12.9512 12.7707 12.8097C12.9121 12.6682 12.9941 12.4779 12.9997 12.2779C13.0053 12.0779 12.9341 11.8833 12.8008 11.7342ZM1.56357 5.51154C1.56357 4.73843 1.79282 3.98268 2.22234 3.33987C2.65185 2.69705 3.26234 2.19603 3.9766 1.90018C4.69086 1.60432 5.47682 1.52691 6.23507 1.67774C6.99333 1.82856 7.68983 2.20085 8.2365 2.74752C8.78317 3.29419 9.15546 3.9907 9.30629 4.74895C9.45711 5.50721 9.3797 6.29316 9.08385 7.00742C8.78799 7.72168 8.28697 8.33217 7.64416 8.76169C7.00134 9.1912 6.24559 9.42046 5.47248 9.42046C4.43615 9.41921 3.44263 9.00698 2.70983 8.27419C1.97704 7.5414 1.56481 6.54787 1.56357 5.51154Z" fill="#D3D1D1"/>
</svg>
